<svg width="330" height="50" viewBox="0 0 330 50" fill="none" xmlns="http://www.w3.org/2000/svg">
<g clip-path="url(#clip0_27_38)">
<path d="M204.598 3.17298C204.449 2.95594 204.373 2.69519 204.381 2.42989V1.1072C204.369 0.827551 204.445 0.551464 204.598 0.319527C204.65 0.22356 204.725 0.143378 204.817 0.0872214C204.909 0.0310648 205.014 0.000959657 205.12 0C205.228 0.000414466 205.334 0.0302199 205.427 0.0863647C205.52 0.142509 205.597 0.222976 205.65 0.319527C205.803 0.551464 205.879 0.827551 205.867 1.1072V2.4076C205.875 2.67289 205.799 2.93365 205.65 3.15068C205.596 3.24535 205.518 3.32391 205.426 3.37864C205.333 3.43337 205.228 3.46237 205.12 3.46278C205.017 3.46413 204.914 3.43821 204.823 3.38749C204.731 3.33676 204.654 3.26291 204.598 3.17298ZM204.598 37.8825C204.445 37.6506 204.369 37.3745 204.381 37.0948V6.78437C204.375 6.51943 204.452 6.25947 204.598 6.04129C204.65 5.94532 204.725 5.86514 204.817 5.80898C204.909 5.75283 205.014 5.72272 205.12 5.72176C205.228 5.72218 205.334 5.75198 205.427 5.80813C205.52 5.86427 205.597 5.94474 205.65 6.04129C205.797 6.25947 205.873 6.51943 205.867 6.78437V37.0948C205.879 37.3745 205.803 37.6506 205.65 37.8825C205.597 37.9791 205.52 38.0595 205.427 38.1157C205.334 38.1718 205.228 38.2016 205.12 38.202C205.015 38.2026 204.911 38.1747 204.82 38.1212C204.728 38.0678 204.652 37.9906 204.598 37.8974V37.8825Z" fill="white"/>
<path d="M231.698 17.7524C232.251 18.2896 232.688 18.9392 232.981 19.6596C233.275 20.3801 233.418 21.1554 233.402 21.9359V37.4441C233.402 37.6412 233.326 37.8302 233.19 37.9696C233.054 38.1089 232.869 38.1872 232.677 38.1872C232.582 38.1908 232.488 38.1726 232.402 38.1341C232.315 38.0955 232.238 38.0375 232.176 37.9643C232.105 37.8963 232.048 37.8133 232.011 37.721C231.973 37.6287 231.956 37.5292 231.959 37.4293V21.9359C231.966 21.0571 231.717 20.1961 231.244 19.4632C230.771 18.7302 230.095 18.1587 229.302 17.8219C228.51 17.4851 227.638 17.3982 226.797 17.5725C225.957 17.7468 225.186 18.1742 224.584 18.8001C224.176 19.2059 223.856 19.6944 223.644 20.2345C223.432 20.7745 223.332 21.3541 223.351 21.9359V37.4441C223.343 37.6434 223.266 37.8333 223.134 37.9792C223.067 38.0528 222.987 38.1109 222.896 38.1494C222.806 38.1879 222.709 38.2059 222.611 38.2021C222.513 38.2037 222.415 38.1847 222.324 38.1464C222.233 38.1081 222.151 38.0512 222.082 37.9792C221.949 37.8333 221.872 37.6434 221.865 37.4441V21.9359C221.881 21.3511 221.776 20.7693 221.558 20.2288C221.339 19.6884 221.011 19.2015 220.595 18.8001C219.986 18.1883 219.215 17.7734 218.378 17.6069C217.541 17.4405 216.674 17.5299 215.886 17.864C215.098 18.1981 214.423 18.7622 213.945 19.4862C213.468 20.2101 213.208 21.062 213.199 21.9359V37.4441C213.203 37.5443 213.186 37.6442 213.149 37.7367C213.111 37.8293 213.054 37.9121 212.981 37.9792C212.921 38.0517 212.845 38.1094 212.759 38.148C212.674 38.1866 212.581 38.2051 212.488 38.2021C212.39 38.2037 212.292 38.1847 212.201 38.1464C212.11 38.1081 212.028 38.0512 211.959 37.9792C211.889 37.9105 211.833 37.8272 211.797 37.7349C211.761 37.6427 211.744 37.5435 211.748 37.4441V16.7715C211.748 16.5744 211.825 16.3854 211.961 16.246C212.097 16.1067 212.281 16.0284 212.474 16.0284C212.567 16.0254 212.66 16.0439 212.745 16.0825C212.83 16.121 212.906 16.1787 212.967 16.2513C213.04 16.3199 213.097 16.404 213.134 16.4977C213.172 16.5915 213.189 16.6925 213.184 16.7938V18.0273C213.799 17.3234 214.569 16.7799 215.43 16.4418C216.291 16.1037 217.219 15.9808 218.135 16.0832C219.052 16.1856 219.931 16.5105 220.701 17.0308C221.471 17.5511 222.108 18.2519 222.561 19.0751C223.045 18.1408 223.773 17.362 224.662 16.8244C225.551 16.2868 226.568 16.0113 227.601 16.0284C228.363 16.0061 229.122 16.148 229.828 16.4449C230.533 16.7419 231.171 17.1873 231.698 17.7524V17.7524Z" fill="white"/>
<path d="M255.556 18.1015C256.466 19.0054 257.185 20.091 257.669 21.2912C258.153 22.4914 258.391 23.7807 258.369 25.0791C258.391 26.3819 258.153 27.6755 257.669 28.8805C257.185 30.0855 256.466 31.1764 255.556 32.0864C254.673 33.0218 253.611 33.7606 252.437 34.2566C251.263 34.7527 250.002 34.9954 248.732 34.9696C245.171 34.9696 242.387 33.3199 240.407 30.0206V48.5086C240.408 48.5967 240.391 48.6841 240.359 48.7657C240.327 48.8473 240.279 48.9215 240.218 48.9842C240.158 49.0462 240.085 49.0947 240.005 49.1266C239.925 49.1586 239.84 49.1733 239.754 49.17C239.669 49.1729 239.583 49.1579 239.504 49.126C239.424 49.0941 239.351 49.0458 239.29 48.9842C239.231 48.9212 239.184 48.8467 239.153 48.765C239.122 48.6834 239.107 48.5962 239.109 48.5086V25.0791C239.098 23.1241 239.656 21.2101 240.711 19.5813C241.766 17.9525 243.271 16.6827 245.033 15.934C246.796 15.1853 248.736 14.9916 250.606 15.3777C252.476 15.7637 254.192 16.712 255.534 18.1015H255.556ZM254.628 31.1353C255.418 30.3513 256.043 29.4091 256.463 28.3673C256.884 27.3255 257.091 26.2063 257.071 25.0791C257.104 23.9382 256.913 22.802 256.51 21.7381C256.107 20.6741 255.499 19.7039 254.723 18.885C253.947 18.066 253.018 17.415 251.993 16.9704C250.967 16.5258 249.864 16.2967 248.75 16.2967C247.636 16.2967 246.534 16.5258 245.508 16.9704C244.482 17.415 243.553 18.066 242.777 18.885C242.001 19.7039 241.394 20.6741 240.99 21.7381C240.587 22.802 240.396 23.9382 240.429 25.0791C240.409 26.2063 240.616 27.3255 241.037 28.3673C241.457 29.4091 242.082 30.3513 242.873 31.1353C243.643 31.929 244.559 32.5589 245.567 32.9888C246.576 33.4186 247.658 33.6399 248.75 33.6399C249.842 33.6399 250.924 33.4186 251.933 32.9888C252.941 32.5589 253.857 31.929 254.628 31.1353V31.1353Z" fill="white"/>
<path d="M282.198 19.2757C283.226 20.2866 284.039 21.5039 284.587 22.8515C285.135 24.1992 285.405 25.6482 285.382 27.1078C285.402 28.5648 285.13 30.0106 284.582 31.3553C284.035 32.7001 283.223 33.9151 282.198 34.9251C281.197 35.9586 280.007 36.7788 278.695 37.3386C277.383 37.8984 275.976 38.1865 274.555 38.1865C273.134 38.1865 271.727 37.8984 270.415 37.3386C269.104 36.7788 267.913 35.9586 266.912 34.9251C265.885 33.9134 265.072 32.6959 264.525 31.3485C263.977 30.001 263.706 28.5524 263.728 27.093C263.705 25.6333 263.975 24.1843 264.523 22.8367C265.071 21.489 265.884 20.2717 266.912 19.2608C267.911 18.2247 269.102 17.402 270.414 16.8405C271.726 16.2791 273.133 15.99 274.555 15.99C275.977 15.99 277.385 16.2791 278.697 16.8405C280.009 17.402 281.199 18.2247 282.198 19.2608V19.2757ZM281.176 33.8922C282.049 33.0033 282.742 31.9463 283.215 30.782C283.687 29.6176 283.931 28.369 283.931 27.1078C283.931 25.8467 283.687 24.598 283.215 23.4337C282.742 22.2693 282.049 21.2123 281.176 20.3235C279.865 18.9836 278.196 18.0716 276.379 17.7024C274.563 17.3333 272.68 17.5235 270.969 18.2491C269.258 18.9748 267.795 20.2033 266.765 21.7799C265.734 23.3564 265.182 25.2103 265.179 27.1078C265.179 29.0069 265.729 30.8633 266.759 32.4421C267.789 34.021 269.253 35.2513 270.965 35.9775C272.677 36.7038 274.562 36.8933 276.379 36.5221C278.197 36.1509 279.866 35.2357 281.176 33.8922V33.8922Z" fill="white"/>
<path d="M302.742 16.2291C302.815 16.2976 302.872 16.3817 302.91 16.4755C302.948 16.5692 302.965 16.6703 302.96 16.7715C302.964 16.8673 302.947 16.9628 302.909 17.0505C302.872 17.1382 302.814 17.2157 302.742 17.2768C302.682 17.3498 302.606 17.4078 302.521 17.4464C302.435 17.485 302.342 17.5033 302.249 17.4997C299.776 17.5174 297.411 18.5384 295.671 20.3392C293.932 22.1401 292.959 24.5739 292.967 27.1078V37.4442C292.967 37.6412 292.891 37.8302 292.755 37.9696C292.619 38.109 292.434 38.1872 292.242 38.1872C292.148 38.1908 292.054 38.1727 291.967 38.1341C291.88 38.0955 291.803 38.0375 291.742 37.9643C291.67 37.8963 291.614 37.8133 291.576 37.721C291.539 37.6287 291.521 37.5292 291.524 37.4293V16.7715C291.522 16.6707 291.541 16.5706 291.578 16.4774C291.616 16.3841 291.671 16.2996 291.742 16.2291C291.803 16.1559 291.88 16.0979 291.967 16.0593C292.054 16.0207 292.148 16.0025 292.242 16.0061C292.339 16.0028 292.437 16.021 292.527 16.0595C292.617 16.0979 292.698 16.1558 292.764 16.2291C292.834 16.2996 292.89 16.3841 292.927 16.4774C292.965 16.5706 292.983 16.6707 292.982 16.7715V21.5495C295.205 17.8391 298.309 15.9888 302.293 15.9987C302.379 16.0026 302.464 16.0251 302.541 16.0648C302.619 16.1045 302.687 16.1604 302.742 16.2291V16.2291Z" fill="white"/>
<path d="M329.602 26.5653C329.673 26.6359 329.728 26.7203 329.766 26.8136C329.803 26.9069 329.822 27.0069 329.82 27.1078C329.839 28.5619 329.569 30.0047 329.027 31.3486C328.485 32.6925 327.681 33.9093 326.666 34.925C325.673 35.964 324.489 36.7894 323.181 37.353C321.874 37.9165 320.47 38.2068 319.051 38.2068C317.633 38.2068 316.229 37.9165 314.921 37.353C313.614 36.7894 312.429 35.964 311.437 34.925C310.42 33.9076 309.615 32.6883 309.073 31.3418C308.531 29.9952 308.262 28.5495 308.283 27.0929V16.7714C308.278 16.6702 308.295 16.5691 308.332 16.4754C308.37 16.3816 308.427 16.2975 308.5 16.229C308.561 16.156 308.636 16.098 308.722 16.0594C308.807 16.0207 308.9 16.0025 308.993 16.006C309.186 16.006 309.37 16.0843 309.506 16.2237C309.642 16.363 309.718 16.5521 309.718 16.7491V21.6907H317.884C318.076 21.6907 318.261 21.7689 318.397 21.9083C318.533 22.0477 318.609 22.2367 318.609 22.4337C318.612 22.5337 318.594 22.6332 318.557 22.7255C318.519 22.8178 318.463 22.9007 318.391 22.9688C318.33 23.0419 318.253 23.0999 318.166 23.1385C318.079 23.1771 317.985 23.1953 317.891 23.1917H309.769V27.0929C309.769 29.6194 310.749 32.0425 312.492 33.829C314.236 35.6156 316.6 36.6193 319.066 36.6193C321.531 36.6193 323.896 35.6156 325.639 33.829C327.383 32.0425 328.362 29.6194 328.362 27.0929C328.361 26.9921 328.379 26.892 328.417 26.7987C328.454 26.7055 328.51 26.621 328.58 26.5504C328.724 26.4128 328.912 26.3335 329.109 26.3275C329.298 26.3381 329.474 26.4234 329.602 26.5653V26.5653Z" fill="white"/>
<path d="M44.0393 38.1352C43.8463 38.0723 43.675 37.9536 43.5462 37.7933C43.344 37.5454 43.2067 37.2487 43.1474 36.9314L38.6586 18.1684C38.6297 18.0787 38.6205 17.9835 38.6318 17.8897C38.6431 17.7959 38.6745 17.7058 38.7239 17.626C38.7694 17.5451 38.8311 17.4748 38.9048 17.4198C38.9784 17.3647 39.0626 17.3261 39.1517 17.3065C39.2346 17.2783 39.3227 17.2697 39.4094 17.2812C39.496 17.2928 39.579 17.3243 39.6521 17.3733C39.8187 17.47 39.9412 17.6303 39.9929 17.8192L44.3802 36.27L48.4701 23.3998C48.531 23.1815 48.6609 22.9902 48.8394 22.8557C49.0179 22.7212 49.2348 22.6512 49.4563 22.6567C49.6784 22.6521 49.8959 22.7223 50.0754 22.8565C50.2548 22.9907 50.3864 23.1816 50.4498 23.3998L54.5325 36.27L58.927 17.8341C58.949 17.7389 58.9908 17.6498 59.0497 17.5728C59.1085 17.4958 59.1829 17.4329 59.2678 17.3882C59.3394 17.3388 59.4211 17.307 59.5067 17.2954C59.5923 17.2838 59.6793 17.2927 59.7609 17.3213C59.8501 17.341 59.9342 17.3796 60.0079 17.4346C60.0816 17.4897 60.1432 17.5599 60.1888 17.6409C60.2396 17.7201 60.2719 17.8102 60.2832 17.9043C60.2946 17.9983 60.2846 18.0938 60.254 18.1833L55.7653 36.9314C55.7122 37.2508 55.5742 37.5491 55.3664 37.7933C55.2391 37.9552 55.0673 38.0743 54.8733 38.1352C54.7615 38.1662 54.6476 38.1886 54.5325 38.202C54.4172 38.1899 54.3032 38.1675 54.1917 38.1352C53.9968 38.076 53.8246 37.9566 53.6985 37.7933C53.4912 37.5479 53.351 37.2504 53.2924 36.9314L49.4563 24.7893L45.6202 36.9685C45.5557 37.273 45.4187 37.5563 45.2214 37.7933C45.0912 37.9554 44.9171 38.0744 44.721 38.1352C44.6095 38.1675 44.4954 38.1899 44.3802 38.202C44.2651 38.1886 44.1511 38.1662 44.0393 38.1352Z" fill="white"/>
<path d="M83.8002 19.2757C84.8346 20.2833 85.6546 21.4992 86.2087 22.847C86.7627 24.1948 87.0389 25.6454 87.0199 27.1078C87.0252 27.208 87.0083 27.3081 86.9707 27.4007C86.933 27.4933 86.8755 27.5761 86.8024 27.6428C86.6611 27.7806 86.4752 27.86 86.2803 27.8657H66.7008C66.8927 30.2794 67.9584 32.5323 69.6885 34.182C71.4208 35.8466 73.7171 36.7553 76.0917 36.7159C76.284 36.7159 76.4684 36.7942 76.6044 36.9335C76.7404 37.0729 76.8168 37.2619 76.8168 37.459C76.8201 37.5589 76.8023 37.6584 76.7648 37.7507C76.7272 37.843 76.6708 37.926 76.5993 37.994C76.5375 38.0672 76.4604 38.1252 76.3738 38.1637C76.2872 38.2023 76.1933 38.2205 76.0989 38.2169C74.6578 38.2418 73.2271 37.9623 71.8959 37.396C70.5647 36.8296 69.3616 35.9885 68.3614 34.925C67.3322 33.9148 66.5176 32.6978 65.9686 31.3501C65.4196 30.0024 65.1479 28.5531 65.1707 27.0929C65.1466 25.6325 65.4177 24.1828 65.9668 22.835C66.5159 21.4871 67.3312 20.2702 68.3614 19.2608C70.4111 17.1676 73.187 15.9922 76.0808 15.9922C78.9746 15.9922 81.7505 17.1676 83.8002 19.2608V19.2757ZM85.4971 26.3424C85.2848 23.9357 84.204 21.6966 82.4659 20.0633C80.7182 18.4337 78.4402 17.5305 76.0772 17.5305C73.7142 17.5305 71.4361 18.4337 69.6885 20.0633C67.9439 21.704 66.8625 23.9548 66.6573 26.3721L85.4971 26.3424Z" fill="white"/>
<path d="M109.043 28.0887C109.59 28.6301 110.023 29.2807 110.315 30.0003C110.607 30.7199 110.751 31.4931 110.74 32.2723C110.758 33.0524 110.617 33.8278 110.325 34.5485C110.032 35.2691 109.596 35.9189 109.043 36.4559C108.51 37.0208 107.87 37.4674 107.161 37.7678C106.452 38.0682 105.691 38.216 104.924 38.2021H97.6726C96.9044 38.2189 96.1412 38.0723 95.431 37.7718C94.7209 37.4712 94.0792 37.0232 93.5464 36.4559C92.9929 35.9192 92.5553 35.2697 92.2617 34.5491C91.9682 33.8285 91.8253 33.0529 91.8423 32.2723C91.8377 32.1765 91.855 32.081 91.8928 31.9933C91.9305 31.9056 91.9877 31.8281 92.0598 31.767C92.1259 31.6933 92.2068 31.6352 92.297 31.5967C92.3871 31.5582 92.4844 31.5403 92.5819 31.5441C92.6803 31.5425 92.778 31.5614 92.869 31.5997C92.96 31.6381 93.0425 31.695 93.1113 31.767C93.2313 31.9063 93.2959 32.0865 93.2926 32.2723C93.283 32.8607 93.3943 33.4446 93.6192 33.9861C93.8441 34.5276 94.1775 35.0146 94.5979 35.4155C94.9951 35.8333 95.4714 36.1636 95.9977 36.3859C96.5239 36.6082 97.089 36.718 97.6581 36.7085H104.91C105.48 36.719 106.047 36.6098 106.574 36.3874C107.102 36.165 107.579 35.8343 107.977 35.4155C108.565 34.7897 108.962 34.0014 109.118 33.1477C109.275 32.294 109.185 31.412 108.859 30.6101C108.533 29.8082 107.986 29.1212 107.284 28.6337C106.583 28.1461 105.757 27.8792 104.91 27.8658H98.6226C97.9053 27.8675 97.1957 27.7134 96.5408 27.4137C95.8858 27.114 95.3002 26.6755 94.8227 26.127C93.781 24.9957 93.2135 23.4911 93.2419 21.936C93.2233 21.1663 93.3534 20.4004 93.6247 19.6824C93.896 18.9645 94.3031 18.3085 94.8227 17.7524C95.295 17.1968 95.8794 16.753 96.5354 16.4515C97.1915 16.15 97.9036 15.9981 98.6226 16.0061H103.945C104.665 15.997 105.379 16.1484 106.036 16.4499C106.694 16.7515 107.279 17.1959 107.752 17.7524C108.797 18.8782 109.363 20.3829 109.326 21.936C109.329 22.0362 109.311 22.136 109.275 22.2292C109.239 22.3225 109.185 22.4072 109.116 22.4784C108.967 22.6038 108.779 22.6698 108.586 22.6642C108.397 22.6661 108.212 22.6004 108.064 22.4784C107.932 22.3295 107.854 22.1374 107.847 21.936C107.877 20.7778 107.466 19.6532 106.701 18.8001C106.361 18.3923 105.938 18.0649 105.462 17.8404C104.987 17.6159 104.469 17.4997 103.945 17.4997H98.6226C98.0994 17.4962 97.5818 17.611 97.1068 17.8357C96.6318 18.0605 96.2109 18.3898 95.8742 18.8001C95.1092 19.6532 94.6983 20.7778 94.7284 21.936C94.6997 23.0849 95.111 24.1998 95.8742 25.0421C96.2058 25.4585 96.6256 25.7921 97.1019 26.0175C97.5781 26.2428 98.0982 26.3539 98.6226 26.3425H104.903C105.672 26.3324 106.435 26.482 107.147 26.7821C107.859 27.0822 108.504 27.5266 109.043 28.0887V28.0887Z" fill="white"/>
<path d="M134.098 19.2757C135.128 20.2851 135.943 21.502 136.492 22.8498C137.041 24.1977 137.312 25.6474 137.288 27.1078C137.309 28.5655 137.037 30.012 136.488 31.357C135.939 32.7019 135.125 33.9166 134.098 34.9251C133.097 35.9583 131.907 36.7785 130.596 37.3381C129.285 37.8978 127.878 38.1859 126.458 38.1859C125.038 38.1859 123.631 37.8978 122.32 37.3381C121.009 36.7785 119.819 35.9583 118.818 34.9251C117.789 33.9149 116.975 32.6978 116.426 31.3501C115.877 30.0025 115.605 28.5532 115.628 27.093C115.604 25.6326 115.875 24.1829 116.424 22.835C116.973 21.4871 117.788 20.2702 118.818 19.2608C119.817 18.2249 121.007 17.4024 122.318 16.841C123.63 16.2797 125.037 15.9906 126.458 15.9906C127.879 15.9906 129.286 16.2797 130.598 16.841C131.909 17.4024 133.099 18.2249 134.098 19.2608V19.2757ZM133.075 33.8922C133.948 33.0033 134.641 31.9463 135.114 30.782C135.587 29.6176 135.83 28.3689 135.83 27.1078C135.83 25.8467 135.587 24.598 135.114 23.4337C134.641 22.2693 133.948 21.2123 133.075 20.3234C131.763 18.9952 130.098 18.0933 128.287 17.7308C126.477 17.3683 124.603 17.5614 122.899 18.2859C121.196 19.0103 119.739 20.2339 118.711 21.8032C117.683 23.3725 117.13 25.2178 117.122 27.1078C117.127 28.9994 117.678 30.8471 118.705 32.4187C119.732 33.9903 121.19 35.2156 122.895 35.9406C124.6 36.6657 126.476 36.8581 128.287 36.4936C130.099 36.1291 131.764 35.2241 133.075 33.8922V33.8922Z" fill="white"/>
<path d="M162.125 17.7524C162.678 18.2896 163.115 18.9392 163.409 19.6596C163.702 20.3801 163.846 21.1554 163.829 21.9359V37.4441C163.829 37.6412 163.753 37.8302 163.617 37.9696C163.481 38.1089 163.297 38.1872 163.104 38.1872C163.01 38.1908 162.916 38.1726 162.829 38.1341C162.743 38.0955 162.666 38.0375 162.604 37.9643C162.532 37.8963 162.476 37.8133 162.438 37.721C162.401 37.6287 162.383 37.5292 162.386 37.4293V21.9359C162.391 21.0602 162.141 20.2029 161.668 19.4732C161.196 18.7435 160.522 18.1744 159.733 17.8382C158.943 17.502 158.075 17.4139 157.236 17.5852C156.398 17.7565 155.629 18.1794 155.026 18.8001C154.608 19.2006 154.277 19.6869 154.055 20.2272C153.832 20.7675 153.723 21.3497 153.735 21.9359V37.4441C153.728 37.6434 153.65 37.8333 153.518 37.9792C153.452 38.0528 153.371 38.1109 153.28 38.1494C153.19 38.1879 153.093 38.2059 152.996 38.2021C152.897 38.2037 152.799 38.1847 152.708 38.1464C152.617 38.1081 152.535 38.0512 152.466 37.9792C152.333 37.8333 152.256 37.6434 152.249 37.4441V21.9359C152.265 21.3511 152.16 20.7693 151.942 20.2288C151.723 19.6884 151.395 19.2015 150.98 18.8001C150.369 18.2006 149.601 17.7964 148.77 17.6369C147.938 17.4775 147.08 17.5698 146.299 17.9025C145.518 18.2352 144.849 18.7939 144.373 19.5102C143.897 20.2265 143.635 21.0695 143.619 21.9359V37.4441C143.624 37.5443 143.607 37.6442 143.569 37.7367C143.532 37.8293 143.474 37.9121 143.402 37.9792C143.341 38.0522 143.265 38.1102 143.18 38.1488C143.095 38.1874 143.002 38.2056 142.908 38.2021C142.81 38.2037 142.712 38.1847 142.621 38.1464C142.53 38.1081 142.448 38.0512 142.379 37.9792C142.309 37.9105 142.254 37.8272 142.218 37.7349C142.181 37.6427 142.165 37.5435 142.169 37.4441V16.7715C142.169 16.5744 142.245 16.3854 142.381 16.246C142.517 16.1067 142.702 16.0284 142.894 16.0284C142.987 16.0249 143.08 16.0431 143.166 16.0817C143.251 16.1203 143.327 16.1783 143.387 16.2513C143.46 16.3199 143.517 16.404 143.555 16.4977C143.592 16.5915 143.609 16.6925 143.605 16.7938V18.0273C144.218 17.3163 144.988 16.7661 145.851 16.4225C146.714 16.0789 147.645 15.952 148.566 16.0524C149.486 16.1528 150.37 16.4776 151.143 16.9995C151.917 17.5215 152.557 18.2255 153.01 19.0528C153.496 18.1196 154.223 17.3417 155.112 16.8043C156.002 16.2669 157.018 15.9907 158.05 16.0061C158.811 15.9898 159.566 16.1367 160.268 16.4374C160.97 16.7382 161.602 17.1861 162.125 17.7524V17.7524Z" fill="white"/>
<path d="M187.339 19.2757C188.37 20.2851 189.185 21.5019 189.734 22.8498C190.283 24.1977 190.554 25.6474 190.53 27.1078C190.534 27.2078 190.516 27.3074 190.479 27.3998C190.441 27.4922 190.385 27.5751 190.313 27.6428C190.168 27.7793 189.98 27.8584 189.783 27.8657H170.204C170.407 30.2857 171.489 32.5394 173.235 34.182C174.966 35.8486 177.263 36.7577 179.638 36.7159C179.83 36.7159 180.015 36.7942 180.151 36.9335C180.287 37.0729 180.363 37.2619 180.363 37.459C180.367 37.5589 180.349 37.6584 180.311 37.7507C180.274 37.843 180.217 37.926 180.146 37.994C180.085 38.0666 180.009 38.1243 179.924 38.1629C179.839 38.2014 179.746 38.2199 179.653 38.2169C178.209 38.242 176.776 37.9628 175.443 37.3965C174.109 36.8302 172.904 35.989 171.901 34.925C170.874 33.9134 170.061 32.6959 169.514 31.3484C168.966 30.001 168.695 28.5524 168.717 27.0929C168.693 25.6333 168.964 24.1843 169.512 22.8366C170.06 21.489 170.873 20.2717 171.901 19.2608C173.95 17.1676 176.726 15.9922 179.62 15.9922C182.514 15.9922 185.29 17.1676 187.339 19.2608V19.2757ZM189.044 26.3424C188.831 23.9357 187.75 21.6966 186.012 20.0633C184.265 18.4337 181.987 17.5305 179.624 17.5305C177.261 17.5305 174.983 18.4337 173.235 20.0633C171.49 21.704 170.409 23.9548 170.204 26.3721L189.044 26.3424Z" fill="white"/>
<path d="M33.1402 23.1561C30.6711 13.9517 21.3878 8.54115 12.4054 11.0713C3.42301 13.6014 -1.85706 23.1141 0.612046 32.3185C3.08115 41.5228 12.3644 46.9334 21.3468 44.4033C30.3293 41.8731 35.6093 32.3605 33.1402 23.1561Z" fill="white"/>
<path d="M26.2873 11.1463C26.3941 11.2051 26.4875 11.2866 26.5612 11.3852C26.635 11.4839 26.6874 11.5975 26.7151 11.7185L33.3141 36.3146C33.353 36.4375 33.3654 36.5677 33.3504 36.696C33.3354 36.8243 33.2933 36.9477 33.2271 37.0577C33.1697 37.1672 33.0902 37.2628 32.9939 37.3384C32.8977 37.414 32.7868 37.4678 32.6687 37.4961C32.5592 37.5353 32.4421 37.5469 32.3273 37.5301C32.2125 37.5133 32.1033 37.4685 32.0088 37.3995C31.9014 37.3414 31.8076 37.2602 31.7337 37.1615C31.6599 37.0627 31.6078 36.9487 31.581 36.8273L29.8188 30.2659C28.5063 35.9951 25.3083 39.5693 20.1886 41.0109C18.4987 41.5155 16.7256 41.6591 14.9793 41.4329C13.2329 41.2066 11.5505 40.6153 10.0363 39.6957C8.48923 38.8393 7.13153 37.6646 6.04838 36.2452C4.96522 34.8258 4.17996 33.1924 3.74186 31.4474C3.24661 29.7157 3.10563 27.8979 3.32774 26.1078C3.54985 24.3176 4.13028 22.5938 5.03265 21.0442C5.87834 19.4575 7.03299 18.0656 8.42508 16.9548C9.81716 15.8441 11.417 15.0381 13.1255 14.5868C18.2403 13.1551 22.7847 14.5546 26.7586 18.7852L24.9965 12.2163C24.9576 12.0934 24.9452 11.9633 24.9602 11.835C24.9753 11.7067 25.0173 11.5833 25.0835 11.4732C25.1331 11.3657 25.2059 11.271 25.2963 11.1963C25.3867 11.1217 25.4925 11.069 25.6056 11.0423C25.7202 11.0111 25.8397 11.0043 25.9569 11.0222C26.0741 11.0401 26.1866 11.0823 26.2873 11.1463V11.1463ZM26.7296 33.6246C27.5017 32.2807 27.9983 30.7896 28.189 29.2424C28.3798 27.6952 28.2607 26.1243 27.8391 24.6259C27.4547 23.1179 26.774 21.7062 25.8389 20.4771C24.9037 19.248 23.7337 18.2273 22.4004 17.4774C21.0819 16.6869 19.6204 16.1791 18.1045 15.985C16.5887 15.7908 15.0502 15.9143 13.5824 16.3479C12.1052 16.7443 10.722 17.444 9.51657 18.4045C8.31118 19.3651 7.30873 20.5665 6.57001 21.9359C5.79496 23.2827 5.29675 24.7777 5.10595 26.329C4.91516 27.8803 5.03581 29.4552 5.4605 30.957C5.84126 32.4635 6.51808 33.8745 7.44952 35.1037C8.38096 36.3329 9.54742 37.3543 10.8775 38.1055C12.1989 38.899 13.6641 39.4084 15.1839 39.6026C16.7037 39.7968 18.2462 39.6717 19.7173 39.2349C21.1939 38.8374 22.5766 38.1372 23.7819 37.1768C24.9871 36.2164 25.9899 35.0156 26.7296 33.6469V33.6246Z" fill="#272A33"/>
<path d="M21.5519 33.5652C25.4047 33.5652 28.528 30.3647 28.528 26.4167C28.528 22.4687 25.4047 19.2682 21.5519 19.2682C17.6991 19.2682 14.5758 22.4687 14.5758 26.4167C14.5758 30.3647 17.6991 33.5652 21.5519 33.5652Z" fill="#272A33"/>
</g>
<defs>
<clipPath id="clip0_27_38">
<rect width="329.82" height="49.17" fill="white"/>
</clipPath>
</defs>
</svg>
