<?xml version="1.0" encoding="iso-8859-1"?>
<svg version="1.1" id="Layer_1" xmlns="http://www.w3.org/2000/svg" xmlns:xlink="http://www.w3.org/1999/xlink" x="0px" y="0px"
	 viewBox="0 0 194.829 194.829" style="enable-background:new 0 0 194.829 194.829;" xml:space="preserve">
<g fill="#3178c6">
	<g>
		<g>
			<path d="M190.931,7.793H101.31V3.897C101.31,1.745,99.567,0,97.414,0H81.828c-2.154,0-3.897,1.745-3.897,3.897v3.897H23.379
				V3.897C23.379,1.745,21.636,0,19.483,0H3.897C1.743,0,0,1.745,0,3.897v15.586c0,2.152,1.743,3.897,3.897,3.897h3.897v54.552
				H3.897C1.743,77.931,0,79.676,0,81.828v15.586c0,2.152,1.743,3.897,3.897,3.897h3.897v89.621c0,2.152,1.743,3.897,3.897,3.897
				h179.241c2.154,0,3.897-1.745,3.897-3.897V11.69C194.828,9.538,193.085,7.793,190.931,7.793z M85.724,7.793h7.793v7.793h-7.793
				V7.793z M23.38,19.482v-3.897h54.552v3.897c0,2.152,1.743,3.897,3.897,3.897h3.897v54.552h-3.897
				c-2.154,0-3.897,1.745-3.897,3.897v3.897H23.379v-3.897c0-2.152-1.743-3.897-3.897-3.897h-3.897V23.379h0.001h3.897
				C21.637,23.379,23.38,21.634,23.38,19.482z M93.517,85.724v7.793h-7.793v-7.793H93.517z M7.793,15.586V7.793h7.793v7.793H7.793z
				 M7.793,93.517v-7.793h7.793v7.793H7.793z M187.036,187.034h-0.002H15.586V101.31h3.897c2.154,0,3.897-1.745,3.897-3.897v-3.897
				h54.552v3.897c0,2.152,1.743,3.897,3.897,3.897h15.586c2.154,0,3.897-1.745,3.897-3.897V81.828c0-2.152-1.743-3.897-3.897-3.897
				h-3.897V23.379h3.897c2.154,0,3.897-1.745,3.897-3.897v-3.897h85.724V187.034z"/>
			<path d="M116.897,159.759c2.154,0,3.897-1.745,3.897-3.897v-29.559l36.211,36.211c0.761,0.761,1.758,1.141,2.755,1.141
				s1.994-0.381,2.755-1.142c1.522-1.522,1.522-3.988,0-5.51l-36.21-36.21h29.559c2.154,0,3.897-1.745,3.897-3.897
				c0-2.152-1.743-3.897-3.897-3.897h-38.966c-0.507,0-1.013,0.104-1.489,0.3c-0.953,0.395-1.713,1.154-2.107,2.107
				c-0.197,0.477-0.3,0.982-0.3,1.489v38.967H113C113,158.014,114.743,159.759,116.897,159.759z"/>
		</g>
	</g>
</g>
<g>
</g>
<g>
</g>
<g>
</g>
<g>
</g>
<g>
</g>
<g>
</g>
<g>
</g>
<g>
</g>
<g>
</g>
<g>
</g>
<g>
</g>
<g>
</g>
<g>
</g>
<g>
</g>
<g>
</g>
</svg>
