<svg xmlns="http://www.w3.org/2000/svg" xmlns:xlink="http://www.w3.org/1999/xlink" viewBox="0 0 454.82 66.17"><defs><style>.cls-1{fill:none;}.cls-2{fill:#fff;}.cls-3{clip-path:url(#clip-path);}.cls-4{fill:#272a33;}</style><clipPath id="clip-path"><rect class="cls-1" x="0.01" y="14.07" width="46.52" height="46.52" rx="23.26" transform="translate(-9.06 7.5) rotate(-15.37)"/></clipPath></defs><g id="레이어_2" data-name="레이어 2"><g id="레이어_1-2" data-name="레이어 1"><path class="cls-2" d="M282.14,4.27a1.65,1.65,0,0,1-.3-1V1.49a1.76,1.76,0,0,1,.3-1.06.83.83,0,0,1,.72-.43.84.84,0,0,1,.73.43,1.76,1.76,0,0,1,.3,1.06V3.24a1.65,1.65,0,0,1-.3,1,.85.85,0,0,1-.73.42A.84.84,0,0,1,282.14,4.27Zm0,46.71a1.76,1.76,0,0,1-.3-1.06V9.13a1.7,1.7,0,0,1,.3-1,.83.83,0,0,1,.72-.43.84.84,0,0,1,.73.43,1.7,1.7,0,0,1,.3,1V49.92a1.76,1.76,0,0,1-.3,1.06.84.84,0,0,1-.73.43A.83.83,0,0,1,282.14,51Z"/><path class="cls-2" d="M319.51,23.89a7.54,7.54,0,0,1,2.35,5.63V50.39a1,1,0,0,1-1,1,.87.87,0,0,1-.69-.3.94.94,0,0,1-.3-.72V29.52A5.94,5.94,0,0,0,309.7,25.3,5.62,5.62,0,0,0,308,29.52V50.39a1.12,1.12,0,0,1-.3.72.93.93,0,0,1-.72.3,1,1,0,0,1-.73-.3,1.12,1.12,0,0,1-.3-.72V29.52a5.58,5.58,0,0,0-1.75-4.22A6,6,0,0,0,294,29.52V50.39a.91.91,0,0,1-.3.72.86.86,0,0,1-.68.3,1,1,0,0,1-.73-.3.94.94,0,0,1-.29-.72V22.57a1,1,0,0,1,1-1,.86.86,0,0,1,.68.3.93.93,0,0,1,.3.73v1.66a8,8,0,0,1,12.93,1.41,7.73,7.73,0,0,1,6.95-4.1A7.52,7.52,0,0,1,319.51,23.89Z"/><path class="cls-2" d="M352.41,24.36a12.77,12.77,0,0,1,3.88,9.39,12.87,12.87,0,0,1-3.88,9.43A12.74,12.74,0,0,1,343,47.06c-4.91,0-8.75-2.22-11.48-6.66V65.28a.9.9,0,0,1-.26.64.86.86,0,0,1-.64.25.87.87,0,0,1-.64-.25.89.89,0,0,1-.25-.64V33.75a13.24,13.24,0,0,1,22.65-9.39ZM351.13,41.9a11.07,11.07,0,0,0,3.37-8.15,11.48,11.48,0,1,0-22.95,0,11.07,11.07,0,0,0,3.37,8.15,11.43,11.43,0,0,0,16.21,0Z"/><path class="cls-2" d="M389.15,25.94a14.28,14.28,0,0,1,4.39,10.54A14.31,14.31,0,0,1,389.15,47a14.85,14.85,0,0,1-21.08,0,14.31,14.31,0,0,1-4.39-10.54,14.28,14.28,0,0,1,4.39-10.54,14.82,14.82,0,0,1,21.08,0Zm-1.41,19.67a12.87,12.87,0,0,0,0-18.26,12.93,12.93,0,0,0-22.06,9.13,12.92,12.92,0,0,0,22.06,9.13Z"/><path class="cls-2" d="M417.48,21.84a.93.93,0,0,1,.3.73.83.83,0,0,1-.3.68.85.85,0,0,1-.68.3A12.89,12.89,0,0,0,404,36.48V50.39a1,1,0,0,1-1,1,.87.87,0,0,1-.69-.3.94.94,0,0,1-.3-.72V22.57a1,1,0,0,1,.3-.73.87.87,0,0,1,.69-.3.94.94,0,0,1,.72.3,1,1,0,0,1,.3.73V29q4.6-7.49,12.84-7.47A.85.85,0,0,1,417.48,21.84Z"/><path class="cls-2" d="M454.52,35.75a1,1,0,0,1,.3.73A14.43,14.43,0,0,1,450.47,47a14.69,14.69,0,0,1-21,0,14.43,14.43,0,0,1-4.35-10.54V22.57a.93.93,0,0,1,.3-.73.85.85,0,0,1,.68-.3,1,1,0,0,1,1,1v6.65h11.26a1,1,0,0,1,1,1,.94.94,0,0,1-.3.72.87.87,0,0,1-.69.3H427.17v5.25a12.82,12.82,0,1,0,25.64,0,1,1,0,0,1,.3-.73,1.12,1.12,0,0,1,.73-.3A1,1,0,0,1,454.52,35.75Z"/><path class="cls-2" d="M60.73,51.32a1.45,1.45,0,0,1-.68-.46,2.56,2.56,0,0,1-.55-1.16L53.31,24.45a.86.86,0,0,1,.09-.73.9.9,0,0,1,.59-.43.8.8,0,0,1,.69.09,1,1,0,0,1,.47.6L61.2,48.81l5.64-17.32a1.38,1.38,0,0,1,1.36-1,1.4,1.4,0,0,1,1.37,1L75.2,48.81,81.26,24a.91.91,0,0,1,.47-.6.77.77,0,0,1,.68-.09.9.9,0,0,1,.59.43.83.83,0,0,1,.09.73L76.9,49.7a2.37,2.37,0,0,1-.55,1.16,1.4,1.4,0,0,1-.68.46,3.18,3.18,0,0,1-.47.09,2.77,2.77,0,0,1-.47-.09,1.36,1.36,0,0,1-.68-.46,2.47,2.47,0,0,1-.56-1.16L68.2,33.36,62.91,49.75a2.54,2.54,0,0,1-.55,1.11,1.43,1.43,0,0,1-.69.46,2.77,2.77,0,0,1-.47.09A3.18,3.18,0,0,1,60.73,51.32Z"/><path class="cls-2" d="M115.56,25.94A14.28,14.28,0,0,1,120,36.48a.9.9,0,0,1-.3.72,1.09,1.09,0,0,1-.72.3h-27A13.06,13.06,0,0,0,96.1,46a12.61,12.61,0,0,0,8.83,3.41,1,1,0,0,1,1,1,.94.94,0,0,1-.3.72.87.87,0,0,1-.69.3A14.48,14.48,0,0,1,94.27,47a14.28,14.28,0,0,1-4.4-10.54,14.25,14.25,0,0,1,4.4-10.54,15.08,15.08,0,0,1,21.29,0Zm2.34,9.51A13.06,13.06,0,0,0,113.72,27,13.09,13.09,0,0,0,96.1,27a13.06,13.06,0,0,0-4.18,8.49Z"/><path class="cls-2" d="M150.37,37.8a7.67,7.67,0,0,1,2.34,5.63,7.51,7.51,0,0,1-2.34,5.63,7.71,7.71,0,0,1-5.68,2.35h-10A7.67,7.67,0,0,1,129,49.06a7.52,7.52,0,0,1-2.35-5.63.83.83,0,0,1,.3-.68.93.93,0,0,1,.72-.3,1,1,0,0,1,.73.3,1,1,0,0,1,.25.68,5.65,5.65,0,0,0,1.8,4.23,5.76,5.76,0,0,0,4.22,1.74h10a5.76,5.76,0,0,0,4.23-1.74,6,6,0,0,0-4.23-10.16H136a7,7,0,0,1-5.24-2.34,8,8,0,0,1-2.18-5.64,7.86,7.86,0,0,1,2.18-5.63A6.85,6.85,0,0,1,136,21.54h7.34a6.85,6.85,0,0,1,5.25,2.35,7.89,7.89,0,0,1,2.17,5.63,1,1,0,0,1-.29.73,1.1,1.1,0,0,1-.73.25,1.13,1.13,0,0,1-.72-.25,1.15,1.15,0,0,1-.3-.73,6,6,0,0,0-1.58-4.22,5,5,0,0,0-3.8-1.75H136a4.91,4.91,0,0,0-3.79,1.75,6,6,0,0,0-1.58,4.22,5.92,5.92,0,0,0,1.58,4.18A4.76,4.76,0,0,0,136,35.45h8.66A7.87,7.87,0,0,1,150.37,37.8Z"/><path class="cls-2" d="M184.92,25.94a14.25,14.25,0,0,1,4.4,10.54A14.28,14.28,0,0,1,184.92,47a14.84,14.84,0,0,1-21.07,0,14.28,14.28,0,0,1-4.4-10.54,14.25,14.25,0,0,1,4.4-10.54,14.81,14.81,0,0,1,21.07,0Zm-1.41,19.67a12.87,12.87,0,0,0,0-18.26,12.92,12.92,0,0,0-22,9.13,12.91,12.91,0,0,0,22,9.13Z"/><path class="cls-2" d="M223.57,23.89a7.54,7.54,0,0,1,2.35,5.63V50.39a1,1,0,0,1-1,1,.87.87,0,0,1-.69-.3.94.94,0,0,1-.3-.72V29.52a5.94,5.94,0,0,0-10.15-4.22A5.62,5.62,0,0,0,212,29.52V50.39a1.12,1.12,0,0,1-.3.72.93.93,0,0,1-.72.3,1,1,0,0,1-.73-.3,1.12,1.12,0,0,1-.3-.72V29.52a5.58,5.58,0,0,0-1.75-4.22,6,6,0,0,0-10.15,4.22V50.39a.91.91,0,0,1-.3.72.85.85,0,0,1-.68.3,1,1,0,0,1-.73-.3.94.94,0,0,1-.29-.72V22.57a1,1,0,0,1,1-1,.85.85,0,0,1,.68.3.93.93,0,0,1,.3.73v1.66A8,8,0,0,1,211,25.64a7.75,7.75,0,0,1,6.95-4.1A7.52,7.52,0,0,1,223.57,23.89Z"/><path class="cls-2" d="M258.34,25.94a14.25,14.25,0,0,1,4.4,10.54.93.93,0,0,1-.3.72,1.14,1.14,0,0,1-.73.3h-27A13.06,13.06,0,0,0,238.89,46a12.58,12.58,0,0,0,8.83,3.41,1,1,0,0,1,1,1,.94.94,0,0,1-.3.72.86.86,0,0,1-.68.3A14.52,14.52,0,0,1,237.05,47a14.31,14.31,0,0,1-4.39-10.54,14.28,14.28,0,0,1,4.39-10.54,15.08,15.08,0,0,1,21.29,0Zm2.35,9.51A13.06,13.06,0,0,0,256.51,27a13.09,13.09,0,0,0-17.62,0,13.06,13.06,0,0,0-4.18,8.49Z"/><rect class="cls-2" x="0.01" y="14.07" width="46.52" height="46.52" rx="23.26" transform="translate(-9.06 7.5) rotate(-15.37)"/><g class="cls-3"><path class="cls-4" d="M36.25,15a1.18,1.18,0,0,1,.59.77l9.1,33.1a1.2,1.2,0,0,1-.12,1,1.18,1.18,0,0,1-.77.59,1,1,0,0,1-.91-.13,1.16,1.16,0,0,1-.59-.77l-2.43-8.83c-1.81,7.71-6.22,12.52-13.28,14.46a17.73,17.73,0,0,1-14-1.77,17.6,17.6,0,0,1-8.68-11.1,17.64,17.64,0,0,1,1.78-14,17.77,17.77,0,0,1,11.16-8.69q10.58-2.89,18.8,5.65l-2.43-8.84a1.2,1.2,0,0,1,.12-1,1.06,1.06,0,0,1,.72-.58A1.2,1.2,0,0,1,36.25,15Zm.61,30.25a15.44,15.44,0,0,0,1.53-12.11,15.42,15.42,0,0,0-7.5-9.62A15.55,15.55,0,0,0,18.73,22a15.55,15.55,0,0,0-9.67,7.52A15.44,15.44,0,0,0,7.53,41.66,15.39,15.39,0,0,0,15,51.28,15.55,15.55,0,0,0,27.19,52.8,15.58,15.58,0,0,0,36.86,45.28Z"/><circle class="cls-4" cx="29.72" cy="35.55" r="9.62"/></g></g></g></svg>