<svg width="461" height="67" viewBox="0 0 461 67" fill="none" xmlns="http://www.w3.org/2000/svg">
<g style="mix-blend-mode:color-dodge" clip-path="url(#clip0_18_3)" filter="url(#filter0_i_18_3)">
<path d="M287.461 4.27C287.255 3.97792 287.15 3.62702 287.161 3.27V1.49C287.145 1.11367 287.25 0.742127 287.461 0.43C287.532 0.300854 287.636 0.192949 287.763 0.117377C287.889 0.0418052 288.034 0.00129145 288.181 0C288.33 0.000557764 288.476 0.0406681 288.604 0.116224C288.733 0.191781 288.838 0.300068 288.911 0.43C289.122 0.742127 289.227 1.11367 289.211 1.49V3.24C289.222 3.59702 289.117 3.94792 288.911 4.24C288.836 4.36739 288.73 4.47312 288.602 4.54677C288.474 4.62042 288.329 4.65944 288.181 4.66C288.038 4.66182 287.896 4.62694 287.77 4.55867C287.644 4.49041 287.538 4.39103 287.461 4.27ZM287.461 50.98C287.25 50.6679 287.145 50.2963 287.161 49.92V9.13C287.154 8.77345 287.259 8.42362 287.461 8.13C287.532 8.00085 287.636 7.89295 287.763 7.81738C287.889 7.74181 288.034 7.70129 288.181 7.7C288.33 7.70056 288.476 7.74067 288.604 7.81622C288.733 7.89178 288.838 8.00007 288.911 8.13C289.113 8.42362 289.218 8.77345 289.211 9.13V49.92C289.227 50.2963 289.122 50.6679 288.911 50.98C288.838 51.1099 288.733 51.2182 288.604 51.2938C288.476 51.3693 288.33 51.4094 288.181 51.41C288.036 51.4107 287.893 51.3732 287.766 51.3013C287.64 51.2293 287.535 51.1254 287.461 51V50.98Z" fill="white"/>
<path d="M324.831 23.89C325.593 24.6129 326.196 25.4872 326.601 26.4567C327.006 27.4262 327.203 28.4696 327.181 29.52V50.39C327.181 50.6552 327.076 50.9096 326.888 51.0971C326.701 51.2846 326.446 51.39 326.181 51.39C326.051 51.3948 325.921 51.3704 325.802 51.3184C325.683 51.2665 325.576 51.1885 325.491 51.09C325.392 50.9985 325.315 50.8868 325.263 50.7626C325.211 50.6384 325.187 50.5045 325.191 50.37V29.52C325.201 28.3373 324.858 27.1786 324.205 26.1923C323.552 25.2059 322.62 24.4369 321.528 23.9836C320.435 23.5303 319.233 23.4134 318.073 23.648C316.914 23.8825 315.851 24.4577 315.021 25.3C314.459 25.846 314.018 26.5035 313.725 27.2303C313.432 27.957 313.295 28.737 313.321 29.52V50.39C313.311 50.6582 313.204 50.9137 313.021 51.11C312.93 51.2092 312.818 51.2873 312.694 51.3391C312.57 51.3909 312.436 51.4151 312.301 51.41C312.165 51.4121 312.031 51.3866 311.905 51.3351C311.78 51.2835 311.666 51.2069 311.571 51.11C311.388 50.9137 311.282 50.6582 311.271 50.39V29.52C311.294 28.7329 311.149 27.95 310.848 27.2227C310.546 26.4954 310.094 25.8401 309.521 25.3C308.681 24.4766 307.618 23.9183 306.463 23.6943C305.309 23.4703 304.114 23.5907 303.027 24.0403C301.94 24.4899 301.009 25.249 300.351 26.2233C299.692 27.1975 299.334 28.3439 299.321 29.52V50.39C299.328 50.5247 299.304 50.6592 299.252 50.7838C299.2 50.9083 299.121 51.0197 299.021 51.11C298.937 51.2077 298.833 51.2853 298.715 51.3373C298.597 51.3892 298.47 51.414 298.341 51.41C298.205 51.4121 298.071 51.3866 297.945 51.3351C297.82 51.2835 297.706 51.2069 297.611 51.11C297.514 51.0176 297.438 50.9055 297.388 50.7813C297.338 50.6572 297.315 50.5237 297.321 50.39V22.57C297.321 22.3048 297.426 22.0504 297.614 21.8629C297.802 21.6754 298.056 21.57 298.321 21.57C298.45 21.566 298.577 21.5908 298.695 21.6427C298.813 21.6947 298.917 21.7723 299.001 21.87C299.102 21.9622 299.181 22.0754 299.232 22.2016C299.284 22.3278 299.308 22.4638 299.301 22.6V24.26C300.149 23.3127 301.211 22.5813 302.398 22.1263C303.586 21.6713 304.864 21.5059 306.128 21.6437C307.392 21.7816 308.605 22.2187 309.667 22.9189C310.728 23.6191 311.607 24.5622 312.231 25.67C312.9 24.4128 313.902 23.3646 315.129 22.6412C316.355 21.9177 317.757 21.547 319.181 21.57C320.233 21.54 321.279 21.7309 322.252 22.1306C323.225 22.5302 324.104 23.1296 324.831 23.89V23.89Z" fill="white"/>
<path d="M357.731 24.36C358.986 25.5764 359.978 27.0374 360.645 28.6525C361.313 30.2677 361.641 32.0026 361.611 33.75C361.641 35.5032 361.312 37.2441 360.645 38.8657C359.978 40.4873 358.986 41.9554 357.731 43.18C356.514 44.4388 355.049 45.433 353.43 46.1006C351.811 46.7682 350.072 47.0948 348.321 47.06C343.411 47.06 339.571 44.84 336.841 40.4V65.28C336.842 65.3985 336.82 65.5161 336.775 65.6259C336.73 65.7358 336.664 65.8357 336.581 65.92C336.497 66.0034 336.397 66.0687 336.287 66.1117C336.177 66.1547 336.059 66.1746 335.941 66.17C335.823 66.174 335.705 66.1538 335.595 66.1109C335.485 66.0679 335.385 66.0029 335.301 65.92C335.219 65.8352 335.155 65.735 335.112 65.6251C335.069 65.5152 335.048 65.3979 335.051 65.28V33.75C335.036 31.1191 335.805 28.5434 337.26 26.3514C338.715 24.1594 340.79 22.4507 343.22 21.4431C345.651 20.4355 348.326 20.1749 350.905 20.6944C353.484 21.214 355.85 22.4901 357.701 24.36H357.731ZM356.451 41.9C357.541 40.845 358.403 39.5771 358.983 38.1751C359.562 36.7731 359.848 35.2669 359.821 33.75C359.866 32.2146 359.603 30.6857 359.047 29.2538C358.491 27.822 357.653 26.5164 356.583 25.4143C355.513 24.3122 354.232 23.4361 352.817 22.8378C351.403 22.2395 349.882 21.9312 348.346 21.9312C346.81 21.9312 345.29 22.2395 343.875 22.8378C342.46 23.4361 341.18 24.3122 340.11 25.4143C339.04 26.5164 338.202 27.822 337.645 29.2538C337.089 30.6857 336.826 32.2146 336.871 33.75C336.844 35.2669 337.13 36.7731 337.709 38.1751C338.289 39.5771 339.151 40.845 340.241 41.9C341.303 42.9682 342.566 43.8159 343.957 44.3944C345.348 44.9728 346.84 45.2706 348.346 45.2706C349.853 45.2706 351.344 44.9728 352.735 44.3944C354.126 43.8159 355.389 42.9682 356.451 41.9V41.9Z" fill="white"/>
<path d="M394.471 25.94C395.888 27.3004 397.01 28.9386 397.765 30.7522C398.521 32.5657 398.894 34.5157 398.861 36.48C398.889 38.4407 398.514 40.3863 397.759 42.196C397.004 44.0057 395.885 45.6408 394.471 47C393.091 48.3908 391.449 49.4947 389.64 50.248C387.831 51.0013 385.891 51.3891 383.931 51.3891C381.972 51.3891 380.031 51.0013 378.222 50.248C376.413 49.4947 374.771 48.3908 373.391 47C371.975 45.6385 370.855 44.0001 370.099 42.1868C369.344 40.3735 368.97 38.4241 369.001 36.46C368.968 34.4957 369.341 32.5457 370.097 30.7322C370.852 28.9186 371.974 27.2804 373.391 25.92C374.769 24.5256 376.411 23.4185 378.22 22.6629C380.029 21.9074 381.97 21.5183 383.931 21.5183C385.892 21.5183 387.833 21.9074 389.642 22.6629C391.451 23.4185 393.093 24.5256 394.471 25.92V25.94ZM393.061 45.61C394.265 44.4138 395.221 42.9914 395.873 41.4245C396.525 39.8576 396.86 38.1772 396.86 36.48C396.86 34.7829 396.525 33.1025 395.873 31.5355C395.221 29.9686 394.265 28.5462 393.061 27.35C391.253 25.5469 388.951 24.3196 386.446 23.8228C383.942 23.326 381.346 23.582 378.986 24.5585C376.627 25.5351 374.609 27.1884 373.188 29.31C371.767 31.4315 371.006 33.9264 371.001 36.48C371.001 39.0357 371.76 41.5339 373.18 43.6586C374.6 45.7833 376.619 47.439 378.98 48.4163C381.342 49.3937 383.94 49.6487 386.446 49.1492C388.953 48.6496 391.255 47.418 393.061 45.61V45.61Z" fill="white"/>
<path d="M422.801 21.84C422.902 21.9322 422.98 22.0454 423.032 22.1716C423.084 22.2978 423.108 22.4338 423.101 22.57C423.107 22.6989 423.084 22.8274 423.031 22.9455C422.979 23.0635 422.9 23.1678 422.801 23.25C422.718 23.3482 422.613 23.4263 422.496 23.4783C422.378 23.5302 422.25 23.5548 422.121 23.55C418.711 23.5738 415.45 24.9478 413.05 27.3712C410.651 29.7947 409.31 33.07 409.321 36.48V50.39C409.321 50.6552 409.216 50.9096 409.028 51.0971C408.841 51.2846 408.586 51.39 408.321 51.39C408.191 51.3948 408.061 51.3704 407.942 51.3184C407.823 51.2665 407.716 51.1885 407.631 51.09C407.532 50.9985 407.455 50.8868 407.403 50.7626C407.351 50.6384 407.327 50.5045 407.331 50.37V22.57C407.329 22.4343 407.354 22.2996 407.406 22.1742C407.458 22.0487 407.534 21.935 407.631 21.84C407.716 21.7415 407.823 21.6635 407.942 21.6116C408.061 21.5596 408.191 21.5352 408.321 21.54C408.456 21.5356 408.589 21.56 408.714 21.6118C408.838 21.6635 408.95 21.7414 409.041 21.84C409.138 21.935 409.215 22.0487 409.266 22.1742C409.318 22.2996 409.343 22.4343 409.341 22.57V29C412.408 24.0067 416.688 21.5167 422.181 21.53C422.3 21.5352 422.417 21.5655 422.524 21.6189C422.631 21.6723 422.725 21.7477 422.801 21.84V21.84Z" fill="white"/>
<path d="M459.841 35.75C459.938 35.845 460.015 35.9587 460.066 36.0842C460.118 36.2097 460.143 36.3443 460.141 36.48C460.167 38.4369 459.795 40.3786 459.047 42.1871C458.3 43.9956 457.192 45.6331 455.791 47C454.423 48.3981 452.79 49.509 450.987 50.2674C449.184 51.0258 447.247 51.4164 445.291 51.4164C443.335 51.4164 441.399 51.0258 439.596 50.2674C437.793 49.509 436.159 48.3981 434.791 47C433.388 45.6308 432.279 43.99 431.531 42.1779C430.783 40.3657 430.412 38.4202 430.441 36.46V22.57C430.434 22.4338 430.458 22.2978 430.51 22.1716C430.562 22.0454 430.641 21.9322 430.741 21.84C430.824 21.7418 430.929 21.6637 431.047 21.6117C431.164 21.5598 431.292 21.5352 431.421 21.54C431.686 21.54 431.941 21.6454 432.128 21.8329C432.316 22.0204 432.421 22.2748 432.421 22.54V29.19H443.681C443.946 29.19 444.201 29.2954 444.388 29.4829C444.576 29.6704 444.681 29.9248 444.681 30.19C444.686 30.3245 444.661 30.4584 444.609 30.5826C444.558 30.7068 444.48 30.8185 444.381 30.91C444.296 31.0085 444.19 31.0865 444.07 31.1384C443.951 31.1904 443.821 31.2148 443.691 31.21H432.491V36.46C432.491 39.8601 433.842 43.1209 436.246 45.5251C438.65 47.9293 441.911 49.28 445.311 49.28C448.711 49.28 451.972 47.9293 454.376 45.5251C456.78 43.1209 458.131 39.8601 458.131 36.46C458.129 36.3243 458.154 36.1897 458.206 36.0642C458.258 35.9387 458.334 35.825 458.431 35.73C458.63 35.5447 458.889 35.4381 459.161 35.43C459.421 35.4442 459.665 35.559 459.841 35.75V35.75Z" fill="white"/>
<path d="M66.0511 51.32C65.7848 51.2354 65.5487 51.0756 65.3711 50.86C65.0922 50.5263 64.9029 50.1271 64.8211 49.7L58.6311 24.45C58.5912 24.3292 58.5785 24.2011 58.5941 24.0749C58.6097 23.9487 58.653 23.8274 58.7211 23.72C58.7839 23.6111 58.8689 23.5165 58.9705 23.4425C59.0721 23.3684 59.1882 23.3165 59.3111 23.29C59.4255 23.2521 59.5469 23.2405 59.6664 23.256C59.7859 23.2716 59.9003 23.314 60.0011 23.38C60.2308 23.5101 60.3998 23.7258 60.4711 23.98L66.5211 48.81L72.1611 31.49C72.2451 31.1963 72.4242 30.9388 72.6704 30.7578C72.9165 30.5768 73.2157 30.4826 73.5211 30.49C73.8274 30.4838 74.1273 30.5783 74.3748 30.7589C74.6222 30.9395 74.8036 31.1964 74.8911 31.49L80.5211 48.81L86.5811 24C86.6114 23.872 86.6691 23.752 86.7502 23.6484C86.8314 23.5448 86.934 23.4601 87.0511 23.4C87.1498 23.3335 87.2625 23.2907 87.3805 23.2751C87.4985 23.2595 87.6185 23.2714 87.7311 23.31C87.854 23.3365 87.97 23.3884 88.0716 23.4625C88.1733 23.5365 88.2582 23.6311 88.3211 23.74C88.3912 23.8466 88.4358 23.9679 88.4514 24.0945C88.467 24.2211 88.4532 24.3496 88.4111 24.47L82.2211 49.7C82.148 50.1299 81.9576 50.5313 81.6711 50.86C81.4955 51.0778 81.2586 51.2381 80.9911 51.32C80.8369 51.3618 80.6798 51.3918 80.5211 51.41C80.3621 51.3936 80.2049 51.3635 80.0511 51.32C79.7824 51.2404 79.545 51.0797 79.3711 50.86C79.0851 50.5297 78.8919 50.1294 78.8111 49.7L73.5211 33.36L68.2311 49.75C68.1422 50.1597 67.9532 50.5411 67.6811 50.86C67.5016 51.0781 67.2615 51.2382 66.9911 51.32C66.8373 51.3635 66.6801 51.3936 66.5211 51.41C66.3624 51.3918 66.2053 51.3618 66.0511 51.32Z" fill="white"/>
<path d="M120.881 25.94C122.308 27.296 123.438 28.9323 124.202 30.7461C124.966 32.5599 125.347 34.512 125.321 36.48C125.328 36.6148 125.305 36.7496 125.253 36.8742C125.201 36.9988 125.122 37.1102 125.021 37.2C124.826 37.3854 124.57 37.4922 124.301 37.5H97.3011C97.5658 40.7481 99.0353 43.7799 101.421 46C103.81 48.2401 106.977 49.4631 110.251 49.41C110.516 49.41 110.771 49.5154 110.958 49.7029C111.146 49.8904 111.251 50.1448 111.251 50.41C111.256 50.5445 111.231 50.6784 111.179 50.8026C111.128 50.9268 111.05 51.0385 110.951 51.13C110.866 51.2285 110.76 51.3065 110.64 51.3584C110.521 51.4104 110.391 51.4348 110.261 51.43C108.274 51.4634 106.301 51.0874 104.465 50.3252C102.629 49.5631 100.97 48.4312 99.5911 47C98.1719 45.6405 97.0485 44.0027 96.2914 42.1891C95.5343 40.3754 95.1597 38.4251 95.1911 36.46C95.1579 34.4947 95.5317 32.5438 96.2889 30.7299C97.0461 28.916 98.1704 27.2784 99.5911 25.92C102.418 23.1031 106.246 21.5213 110.236 21.5213C114.227 21.5213 118.055 23.1031 120.881 25.92V25.94ZM123.221 35.45C122.928 32.2111 121.438 29.198 119.041 27C116.631 24.8069 113.49 23.5915 110.231 23.5915C106.973 23.5915 103.831 24.8069 101.421 27C99.0154 29.2079 97.5241 32.237 97.2411 35.49L123.221 35.45Z" fill="white"/>
<path d="M155.691 37.8C156.445 38.5286 157.042 39.4042 157.445 40.3725C157.847 41.3409 158.047 42.3815 158.031 43.43C158.056 44.4799 157.861 45.5234 157.458 46.4931C157.055 47.4629 156.453 48.3373 155.691 49.06C154.956 49.8203 154.073 50.4213 153.095 50.8255C152.118 51.2298 151.068 51.4288 150.011 51.41H140.011C138.952 51.4326 137.899 51.2354 136.92 50.8309C135.941 50.4265 135.056 49.8235 134.321 49.06C133.558 48.3378 132.954 47.4637 132.55 46.494C132.145 45.5243 131.948 44.4805 131.971 43.43C131.965 43.3011 131.989 43.1726 132.041 43.0545C132.093 42.9365 132.172 42.8322 132.271 42.75C132.362 42.6508 132.474 42.5727 132.598 42.5209C132.722 42.4691 132.857 42.4449 132.991 42.45C133.127 42.4479 133.261 42.4734 133.387 42.5249C133.512 42.5765 133.626 42.6531 133.721 42.75C133.886 42.9375 133.976 43.1801 133.971 43.43C133.958 44.2218 134.111 45.0076 134.421 45.7363C134.732 46.4651 135.191 47.1205 135.771 47.66C136.319 48.2223 136.976 48.6667 137.701 48.9659C138.427 49.2651 139.206 49.4128 139.991 49.4H149.991C150.778 49.4142 151.559 49.2671 152.286 48.9679C153.014 48.6686 153.672 48.2235 154.221 47.66C155.032 46.8177 155.579 45.757 155.795 44.6081C156.011 43.4593 155.887 42.2723 155.437 41.1931C154.988 40.1139 154.233 39.1895 153.266 38.5334C152.298 37.8773 151.16 37.5181 149.991 37.5H141.321C140.332 37.5023 139.353 37.295 138.45 36.8917C137.547 36.4883 136.74 35.8981 136.081 35.16C134.645 33.6376 133.862 31.6128 133.901 29.52C133.875 28.4842 134.055 27.4536 134.429 26.4873C134.803 25.5211 135.365 24.6384 136.081 23.89C136.732 23.1424 137.538 22.5451 138.443 22.1394C139.348 21.7336 140.33 21.5291 141.321 21.54H148.661C149.654 21.5277 150.638 21.7315 151.545 22.1373C152.451 22.543 153.259 23.1411 153.911 23.89C155.352 25.405 156.132 27.43 156.081 29.52C156.085 29.655 156.061 29.7892 156.011 29.9147C155.961 30.0401 155.886 30.1542 155.791 30.25C155.586 30.4187 155.327 30.5075 155.061 30.5C154.799 30.5026 154.545 30.4142 154.341 30.25C154.158 30.0497 154.052 29.7911 154.041 29.52C154.083 27.9615 153.516 26.448 152.461 25.3C151.992 24.7512 151.409 24.3106 150.753 24.0085C150.097 23.7064 149.383 23.55 148.661 23.55H141.321C140.6 23.5453 139.886 23.6997 139.231 24.0022C138.576 24.3046 137.995 24.7478 137.531 25.3C136.476 26.448 135.909 27.9615 135.951 29.52C135.911 31.0662 136.479 32.5666 137.531 33.7C137.988 34.2605 138.567 34.7094 139.224 35.0126C139.881 35.3159 140.598 35.4654 141.321 35.45H149.981C151.042 35.4365 152.095 35.6378 153.076 36.0416C154.057 36.4455 154.947 37.0436 155.691 37.8V37.8Z" fill="white"/>
<path d="M190.241 25.94C191.662 27.2984 192.786 28.936 193.543 30.7499C194.3 32.5638 194.674 34.5147 194.641 36.48C194.67 38.4417 194.294 40.3883 193.537 42.1983C192.78 44.0082 191.658 45.6428 190.241 47C188.862 48.3905 187.22 49.4942 185.412 50.2473C183.604 51.0005 181.665 51.3882 179.706 51.3882C177.747 51.3882 175.808 51.0005 174 50.2473C172.192 49.4942 170.551 48.3905 169.171 47C167.752 45.6405 166.629 44.0027 165.871 42.1891C165.114 40.3754 164.74 38.4251 164.771 36.46C164.738 34.4947 165.112 32.5438 165.869 30.7299C166.626 28.916 167.75 27.2784 169.171 25.92C170.549 24.5259 172.189 23.419 173.997 22.6636C175.806 21.9081 177.746 21.5191 179.706 21.5191C181.666 21.5191 183.606 21.9081 185.415 22.6636C187.223 23.419 188.864 24.5259 190.241 25.92V25.94ZM188.831 45.61C190.035 44.4138 190.991 42.9914 191.643 41.4245C192.295 39.8576 192.63 38.1772 192.63 36.48C192.63 34.7828 192.295 33.1025 191.643 31.5355C190.991 29.9686 190.035 28.5462 188.831 27.35C187.022 25.5625 184.725 24.3488 182.229 23.861C179.732 23.3732 177.148 23.633 174.799 24.608C172.449 25.5829 170.44 27.2295 169.023 29.3414C167.606 31.4533 166.843 33.9366 166.831 36.48C166.838 39.0255 167.598 41.5121 169.015 43.627C170.431 45.742 172.441 47.391 174.793 48.3667C177.144 49.3424 179.731 49.6013 182.229 49.1108C184.726 48.6203 187.024 47.4023 188.831 45.61V45.61Z" fill="white"/>
<path d="M228.891 23.89C229.653 24.6129 230.256 25.4872 230.661 26.4567C231.066 27.4262 231.263 28.4696 231.241 29.52V50.39C231.241 50.6552 231.136 50.9096 230.948 51.0971C230.761 51.2846 230.506 51.39 230.241 51.39C230.111 51.3948 229.981 51.3704 229.862 51.3184C229.743 51.2665 229.636 51.1885 229.551 51.09C229.452 50.9985 229.375 50.8868 229.323 50.7626C229.271 50.6384 229.247 50.5045 229.251 50.37V29.52C229.257 28.3415 228.912 27.1878 228.26 26.2059C227.609 25.2239 226.68 24.4579 225.592 24.0055C224.503 23.5531 223.305 23.4346 222.149 23.6651C220.994 23.8956 219.932 24.4647 219.101 25.3C218.525 25.839 218.068 26.4934 217.762 27.2204C217.455 27.9475 217.305 28.7311 217.321 29.52V50.39C217.311 50.6582 217.204 50.9137 217.021 51.11C216.93 51.2092 216.818 51.2873 216.694 51.3391C216.57 51.3909 216.436 51.4151 216.301 51.41C216.165 51.4121 216.031 51.3866 215.905 51.3351C215.78 51.2835 215.666 51.2069 215.571 51.11C215.388 50.9137 215.282 50.6582 215.271 50.39V29.52C215.294 28.7329 215.149 27.95 214.848 27.2227C214.546 26.4954 214.094 25.8401 213.521 25.3C212.679 24.4932 211.62 23.9492 210.474 23.7347C209.327 23.5202 208.143 23.6443 207.067 24.0921C205.99 24.5398 205.067 25.2916 204.41 26.2556C203.754 27.2196 203.393 28.354 203.371 29.52V50.39C203.378 50.5247 203.354 50.6592 203.302 50.7838C203.25 50.9083 203.171 51.0197 203.071 51.11C202.988 51.2082 202.883 51.2863 202.766 51.3383C202.648 51.3902 202.52 51.4148 202.391 51.41C202.255 51.4121 202.121 51.3866 201.995 51.3351C201.87 51.2835 201.756 51.2069 201.661 51.11C201.564 51.0176 201.488 50.9055 201.438 50.7813C201.388 50.6572 201.365 50.5237 201.371 50.39V22.57C201.371 22.3048 201.476 22.0504 201.664 21.8629C201.852 21.6754 202.106 21.57 202.371 21.57C202.5 21.5652 202.628 21.5898 202.746 21.6417C202.863 21.6937 202.968 21.7718 203.051 21.87C203.152 21.9622 203.231 22.0754 203.282 22.2016C203.334 22.3278 203.358 22.4638 203.351 22.6V24.26C204.197 23.3032 205.259 22.5627 206.449 22.1004C207.639 21.638 208.923 21.4672 210.192 21.6023C211.462 21.7374 212.681 22.1744 213.747 22.8769C214.813 23.5793 215.696 24.5267 216.321 25.64C216.991 24.3843 217.994 23.3374 219.22 22.6141C220.446 21.8909 221.848 21.5193 223.271 21.54C224.32 21.518 225.362 21.7158 226.33 22.1205C227.298 22.5252 228.17 23.1279 228.891 23.89V23.89Z" fill="white"/>
<path d="M263.661 25.94C265.082 27.2984 266.206 28.936 266.963 30.7499C267.72 32.5638 268.094 34.5147 268.061 36.48C268.066 36.6146 268.042 36.7487 267.99 36.873C267.938 36.9973 267.86 37.1089 267.761 37.2C267.561 37.3837 267.302 37.4901 267.031 37.5H240.031C240.312 40.7566 241.803 43.7896 244.211 46C246.598 48.2429 249.766 49.4662 253.041 49.41C253.306 49.41 253.561 49.5154 253.748 49.7029C253.936 49.8904 254.041 50.1448 254.041 50.41C254.046 50.5445 254.021 50.6784 253.969 50.8026C253.918 50.9268 253.84 51.0385 253.741 51.13C253.657 51.2277 253.553 51.3053 253.435 51.3573C253.317 51.4092 253.19 51.434 253.061 51.43C251.071 51.4638 249.095 51.088 247.256 50.3259C245.417 49.5638 243.754 48.4317 242.371 47C240.955 45.6385 239.835 44.0001 239.079 42.1868C238.324 40.3735 237.95 38.4241 237.981 36.46C237.948 34.4957 238.321 32.5457 239.077 30.7322C239.832 28.9186 240.954 27.2804 242.371 25.92C245.198 23.1031 249.026 21.5213 253.016 21.5213C257.007 21.5213 260.835 23.1031 263.661 25.92V25.94ZM266.011 35.45C265.718 32.2111 264.228 29.198 261.831 27C259.421 24.8069 256.28 23.5915 253.021 23.5915C249.763 23.5915 246.621 24.8069 244.211 27C241.805 29.2079 240.314 32.237 240.031 35.49L266.011 35.45Z" fill="white"/>
<path d="M51.0213 31.162C47.6164 18.7753 34.8148 11.4941 22.4281 14.899C10.0414 18.3039 2.76021 31.1055 6.16509 43.4922C9.56998 55.8789 22.3716 63.1601 34.7583 59.7552C47.145 56.3503 54.4262 43.5487 51.0213 31.162Z" fill="white"/>
<path d="M41.5711 15C41.7184 15.0792 41.8472 15.1888 41.9489 15.3216C42.0506 15.4543 42.1229 15.6072 42.1611 15.77L51.2611 48.87C51.3148 49.0354 51.3318 49.2105 51.3111 49.3832C51.2904 49.5559 51.2324 49.722 51.1411 49.87C51.0619 50.0173 50.9523 50.1461 50.8195 50.2478C50.6868 50.3495 50.5339 50.4218 50.3711 50.46C50.2201 50.5127 50.0586 50.5284 49.9003 50.5058C49.7419 50.4831 49.5913 50.4229 49.4611 50.33C49.313 50.2518 49.1836 50.1426 49.0817 50.0096C48.9799 49.8767 48.908 49.7233 48.8711 49.56L46.4411 40.73C44.6311 48.44 40.2211 53.25 33.1611 55.19C30.8307 55.869 28.3856 56.0623 25.9774 55.7578C23.5692 55.4534 21.2492 54.6577 19.1611 53.42C17.0277 52.2675 15.1554 50.6867 13.6618 48.7766C12.1681 46.8665 11.0852 44.6683 10.4811 42.32C9.79816 39.9896 9.60375 37.5433 9.91004 35.1342C10.2163 32.7252 11.0167 30.4054 12.2611 28.32C13.4273 26.1847 15.0196 24.3116 16.9392 22.8168C18.8589 21.322 21.0651 20.2373 23.4211 19.63C30.4744 17.7033 36.7411 19.5867 42.2211 25.28L39.7911 16.44C39.7375 16.2746 39.7204 16.0995 39.7411 15.9268C39.7618 15.7541 39.8198 15.588 39.9111 15.44C39.9795 15.2952 40.0798 15.1678 40.2045 15.0674C40.3292 14.9669 40.4751 14.896 40.6311 14.86C40.7891 14.8181 40.9539 14.8089 41.1156 14.833C41.2772 14.8571 41.4322 14.9139 41.5711 15V15ZM42.1811 45.25C43.2458 43.4414 43.9305 41.4348 44.1936 39.3526C44.4567 37.2705 44.2925 35.1566 43.7111 33.14C43.1809 31.1107 42.2424 29.2109 40.9528 27.5569C39.6632 25.9028 38.0498 24.5291 36.2111 23.52C34.3929 22.4562 32.3775 21.7729 30.2872 21.5116C28.1968 21.2503 26.0752 21.4165 24.0511 22C22.0141 22.5334 20.1066 23.475 18.4444 24.7677C16.7822 26.0603 15.3998 27.6771 14.3811 29.52C13.3123 31.3325 12.6253 33.3443 12.3622 35.432C12.0991 37.5196 12.2655 39.639 12.8511 41.66C13.3762 43.6874 14.3095 45.5863 15.5939 47.2404C16.8784 48.8946 18.4869 50.2691 20.3211 51.28C22.1433 52.3479 24.1638 53.0334 26.2596 53.2948C28.3554 53.5561 30.4825 53.3878 32.5111 52.8C34.5474 52.265 36.4542 51.3227 38.1162 50.0303C39.7782 48.7378 41.161 47.1218 42.1811 45.28V45.25Z" fill="#272A33"/>
<path d="M35.0411 45.17C40.3541 45.17 44.6611 40.863 44.6611 35.55C44.6611 30.237 40.3541 25.93 35.0411 25.93C29.7281 25.93 25.4211 30.237 25.4211 35.55C25.4211 40.863 29.7281 45.17 35.0411 45.17Z" fill="#272A33"/>
</g>
<defs>
<filter id="filter0_i_18_3" x="0" y="0" width="460.142" height="70.1706" filterUnits="userSpaceOnUse" color-interpolation-filters="sRGB">
<feFlood flood-opacity="0" result="BackgroundImageFix"/>
<feBlend mode="normal" in="SourceGraphic" in2="BackgroundImageFix" result="shape"/>
<feColorMatrix in="SourceAlpha" type="matrix" values="0 0 0 0 0 0 0 0 0 0 0 0 0 0 0 0 0 0 127 0" result="hardAlpha"/>
<feOffset dy="4"/>
<feGaussianBlur stdDeviation="2"/>
<feComposite in2="hardAlpha" operator="arithmetic" k2="-1" k3="1"/>
<feColorMatrix type="matrix" values="0 0 0 0 0 0 0 0 0 0 0 0 0 0 0 0 0 0 0.25 0"/>
<feBlend mode="normal" in2="shape" result="effect1_innerShadow_18_3"/>
</filter>
<clipPath id="clip0_18_3">
<rect width="460.142" height="66.1706" fill="white"/>
</clipPath>
</defs>
</svg>
