<svg xmlns="http://www.w3.org/2000/svg" viewBox="0 0 46.53 46.53"><defs><style>.cls-1{fill:#3178c6;}.cls-2{fill:#fff;}</style></defs><g id="레이어_2" data-name="레이어 2"><g id="레이어_1-2" data-name="레이어 1"><rect class="cls-1" x="0.01" y="0.01" width="46.52" height="46.52" rx="23.26" transform="matrix(0.96, -0.27, 0.27, 0.96, -5.33, 7)"/><path class="cls-2" d="M36.25,1a1.16,1.16,0,0,1,.59.76l9.1,33.1a1.19,1.19,0,0,1-.12,1,1.16,1.16,0,0,1-.77.6,1.06,1.06,0,0,1-.91-.14,1.16,1.16,0,0,1-.59-.76l-2.43-8.83c-1.81,7.7-6.22,12.52-13.28,14.46a17.73,17.73,0,0,1-14-1.77,17.6,17.6,0,0,1-8.68-11.1,17.63,17.63,0,0,1,1.78-14A17.71,17.71,0,0,1,18.08,5.58q10.58-2.91,18.8,5.64L34.45,2.39a1.19,1.19,0,0,1,.12-1,1,1,0,0,1,.72-.58A1.13,1.13,0,0,1,36.25,1Zm.61,30.24a15.42,15.42,0,0,0,1.53-12.1,15.44,15.44,0,0,0-7.5-9.63A15.55,15.55,0,0,0,18.73,8a15.54,15.54,0,0,0-9.67,7.51A15.44,15.44,0,0,0,7.53,27.59,15.39,15.39,0,0,0,15,37.21a15.55,15.55,0,0,0,12.16,1.52A15.52,15.52,0,0,0,36.86,31.21Z"/><circle class="cls-2" cx="29.72" cy="21.49" r="9.62"/></g></g></svg>